{"asset":{"version":"2.0","generator":"babylon.js glTF exporter for Autodesk MAYA 2022 v20221031.2"},"scene":0,"scenes":[{"nodes":[0]}],"nodes":[{"children":[1,2,3],"translation":[-5.82103252,0.1058473,1.00271118],"scale":[0.5237533,0.5237533,0.5237533],"name":"l:woerma"},{"mesh":0,"name":"l:pCube5","extras":{"currentUVSet":"map1"}},{"mesh":1,"name":"l:polySurface4572","extras":{"currentUVSet":"map1"}},{"mesh":2,"name":"l:polySurface4573","extras":{"currentUVSet":"map1"}}],"meshes":[{"primitives":[{"attributes":{"POSITION":1,"TANGENT":2,"NORMAL":3,"TEXCOORD_0":4},"indices":0,"material":0}],"name":"l:pCube5"},{"primitives":[{"attributes":{"POSITION":6,"TANGENT":7,"NORMAL":8,"TEXCOORD_0":9},"indices":5,"material":1}],"name":"l:polySurface4572"},{"primitives":[{"attributes":{"POSITION":11,"TANGENT":12,"NORMAL":13,"TEXCOORD_0":14},"indices":10,"material":2}],"name":"l:polySurface4573"}],"accessors":[{"bufferView":0,"componentType":5123,"count":132,"type":"SCALAR","name":"accessorIndices"},{"bufferView":1,"componentType":5126,"count":80,"max":[-13.5899811,1.40937614,7.87247133],"min":[-40.3288078,-0.0628585,-7.861521],"type":"VEC3","name":"accessorPositions"},{"bufferView":2,"componentType":5126,"count":80,"type":"VEC4","name":"accessorTangents"},{"bufferView":1,"byteOffset":960,"componentType":5126,"count":80,"type":"VEC3","name":"accessorNormals"},{"bufferView":3,"componentType":5126,"count":80,"type":"VEC2","name":"accessorUVs"},{"bufferView":0,"byteOffset":264,"componentType":5123,"count":87,"type":"SCALAR","name":"accessorIndices"},{"bufferView":1,"byteOffset":1920,"componentType":5126,"count":37,"max":[-14.1387281,2.53544164,7.695438],"min":[-39.6147461,0.06517487,-7.366689],"type":"VEC3","name":"accessorPositions"},{"bufferView":2,"byteOffset":1280,"componentType":5126,"count":37,"type":"VEC4","name":"accessorTangents"},{"bufferView":1,"byteOffset":2364,"componentType":5126,"count":37,"type":"VEC3","name":"accessorNormals"},{"bufferView":3,"byteOffset":640,"componentType":5126,"count":37,"type":"VEC2","name":"accessorUVs"},{"bufferView":0,"byteOffset":440,"componentType":5123,"count":1023,"type":"SCALAR","name":"accessorIndices"},{"bufferView":1,"byteOffset":2808,"componentType":5126,"count":539,"max":[-14.1387281,3.71708941,7.695438],"min":[-40.327774,0.06517487,-7.366689],"type":"VEC3","name":"accessorPositions"},{"bufferView":2,"byteOffset":1872,"componentType":5126,"count":539,"type":"VEC4","name":"accessorTangents"},{"bufferView":1,"byteOffset":9276,"componentType":5126,"count":539,"type":"VEC3","name":"accessorNormals"},{"bufferView":3,"byteOffset":936,"componentType":5126,"count":539,"type":"VEC2","name":"accessorUVs"}],"bufferViews":[{"buffer":0,"byteLength":2488,"name":"bufferViewScalar"},{"buffer":0,"byteOffset":2488,"byteLength":15744,"byteStride":12,"name":"bufferViewFloatVec3"},{"buffer":0,"byteOffset":18232,"byteLength":10496,"byteStride":16,"name":"bufferViewFloatVec4"},{"buffer":0,"byteOffset":28728,"byteLength":5248,"byteStride":8,"name":"bufferViewFloatVec2"}],"buffers":[{"uri":"woerma2.bin","byteLength":33976}],"materials":[{"pbrMetallicRoughness":{"baseColorTexture":{"index":0},"metallicFactor":0.0,"roughnessFactor":0.3207082},"name":"l:blinn11"},{"pbrMetallicRoughness":{"baseColorTexture":{"index":1},"metallicFactor":0.0,"roughnessFactor":0.3207082},"name":"l:blinn7"},{"pbrMetallicRoughness":{"baseColorTexture":{"index":2},"metallicFactor":0.0,"roughnessFactor":0.3207082},"name":"l:blinn10"}],"textures":[{"sampler":0,"source":0,"name":"kfc.jpg"},{"sampler":0,"source":1,"name":"xiaomian.jpg"},{"sampler":0,"source":2,"name":"woerma1.jpg"}],"images":[{"uri":"kfc.jpg"},{"uri":"xiaomian.jpg"},{"uri":"woerma1.jpg"}],"samplers":[{"magFilter":9729,"minFilter":9987}]}