{"asset":{"version":"2.0","generator":"babylon.js glTF exporter for Autodesk MAYA 2022 v20221031.2"},"scene":0,"scenes":[{"nodes":[0]}],"nodes":[{"children":[1,2,3,4,5,6,7,8,9,10,11,12,13,14],"translation":[-11.1435289,0.125069574,-11.5262737],"rotation":[0.0,0.8184983,0.0,0.5745089],"scale":[77.74332,77.74332,77.74332],"name":"zzjihe8xf:zzjihe8xf:shumadashua"},{"mesh":0,"translation":[-0.188151971,-0.00160874613,0.08441375],"rotation":[0.0,0.8184983,0.0,-0.5745089],"scale":[0.0128628416,0.0128628416,0.0128628416],"name":"zzjihe8xf:zzjihe8xf:polySurface232","extras":{"currentUVSet":"map1"}},{"mesh":1,"translation":[-0.188151971,-0.00160874613,0.08441375],"rotation":[0.0,0.8184983,0.0,-0.5745089],"scale":[0.0128628416,0.0128628416,0.0128628416],"name":"zzjihe8xf:zzjihe8xf:ding","extras":{"currentUVSet":"map1"}},{"mesh":2,"translation":[-0.188151971,-0.00160874613,0.08441375],"rotation":[0.0,0.8184983,0.0,-0.5745089],"scale":[0.0128628416,0.0128628416,0.0128628416],"name":"zzjihe8xf:zzjihe8xf:zzjihe8xf:polySurface230","extras":{"currentUVSet":"map1"}},{"mesh":3,"translation":[-0.188151971,-0.00160874613,0.08441375],"rotation":[0.0,0.8184983,0.0,-0.5745089],"scale":[0.0128628416,0.0128628416,0.0128628416],"name":"polySurface2","extras":{"currentUVSet":"map1"}},{"mesh":4,"translation":[-0.188151971,-0.00160874613,0.08441375],"rotation":[0.0,0.8184983,0.0,-0.5745089],"scale":[0.0128628416,0.0128628416,0.0128628416],"name":"polySurface3","extras":{"currentUVSet":"map1"}},{"mesh":5,"translation":[-0.188151971,-0.00160874613,0.08441375],"rotation":[0.0,0.8184983,0.0,-0.5745089],"scale":[0.0128628416,0.0128628416,0.0128628416],"name":"zzjihe8xf:jiejing7gc:zshuma1:wgg9ctest7zze:polySurface180","extras":{"currentUVSet":"map1"}},{"mesh":6,"translation":[-0.188151971,-0.00160874613,0.08441375],"rotation":[0.0,0.8184983,0.0,-0.5745089],"scale":[0.0128628416,0.0128628416,0.0128628416],"name":"shuichi","extras":{"currentUVSet":"map1"}},{"mesh":7,"translation":[-0.188151971,-0.00160874613,0.08441375],"rotation":[0.0,0.8184983,0.0,-0.5745089],"scale":[0.0128628416,0.0128628416,0.0128628416],"name":"tiao","extras":{"currentUVSet":"map1"}},{"mesh":8,"translation":[-0.421710759,0.0013512054,0.327583641],"rotation":[0.0,0.585304,0.0,0.8108139],"scale":[0.0840484,0.0840484,0.0840484],"name":"zzjihe8xf:jiejing7gc:zshuma1:wgg9ctest7zze:pCube1","extras":{"currentUVSet":"map1"}},{"mesh":9,"translation":[-0.421710759,0.0013512054,0.327583641],"rotation":[0.0,0.585304,0.0,0.8108139],"scale":[0.0840484,0.0840484,0.0840484],"name":"zzjihe8xf:jiejing7gc:zshuma1:wgg9ctest7zze:wgg9ctest7z:wgg9ctest6:polySurface296","extras":{"currentUVSet":"map1"}},{"mesh":10,"translation":[-0.421710759,0.0013512054,0.327583641],"rotation":[0.0,0.585304,0.0,0.8108139],"scale":[0.0840484,0.0840484,0.0840484],"name":"zzjihe8xf:jiejing7gc:zshuma1:wgg9ctest7zze:polySurface306","extras":{"currentUVSet":"map1"}},{"mesh":11,"translation":[-0.188151941,-0.0016087502,0.08441375],"rotation":[0.0,0.8184983,0.0,-0.5745089],"scale":[0.0128628416,0.0128628416,0.0128628416],"name":"zzjihe8xf:jiejing7gc:zshuma1:wgg9ctest7zze:polySurface340","extras":{"currentUVSet":"map1"}},{"mesh":12,"translation":[-0.188151941,-0.0016087502,0.08441375],"rotation":[0.0,0.8184983,0.0,-0.5745089],"scale":[0.0128628416,0.0128628416,0.0128628416],"name":"diban12"},{"mesh":13,"translation":[-0.188151941,-0.0016087502,0.08441375],"rotation":[0.0,0.8184983,0.0,-0.5745089],"scale":[0.0128628416,0.0128628416,0.0128628416],"name":"zzjihe8xf:zzjihe8xf:pCube2"}],"meshes":[{"primitives":[{"attributes":{"POSITION":1,"TANGENT":2,"NORMAL":3,"TEXCOORD_0":4},"indices":0,"material":0}],"name":"zzjihe8xf:zzjihe8xf:polySurface232"},{"primitives":[{"attributes":{"POSITION":6,"TANGENT":7,"NORMAL":8,"TEXCOORD_0":9},"indices":5,"material":1}],"name":"zzjihe8xf:zzjihe8xf:ding"},{"primitives":[{"attributes":{"POSITION":11,"TANGENT":12,"NORMAL":13,"TEXCOORD_0":14},"indices":10,"material":2}],"name":"zzjihe8xf:zzjihe8xf:zzjihe8xf:polySurface230"},{"primitives":[{"attributes":{"POSITION":16,"TANGENT":17,"NORMAL":18,"TEXCOORD_0":19},"indices":15,"material":3}],"name":"polySurface2"},{"primitives":[{"attributes":{"POSITION":21,"TANGENT":22,"NORMAL":23,"TEXCOORD_0":24},"indices":20,"material":4}],"name":"polySurface3"},{"primitives":[{"attributes":{"POSITION":26,"TANGENT":27,"NORMAL":28,"TEXCOORD_0":29},"indices":25,"material":5}],"name":"zzjihe8xf:jiejing7gc:zshuma1:wgg9ctest7zze:polySurface180"},{"primitives":[{"attributes":{"POSITION":31,"TANGENT":32,"NORMAL":33,"TEXCOORD_0":34},"indices":30,"material":6},{"attributes":{"POSITION":36,"TANGENT":37,"NORMAL":38,"TEXCOORD_0":39},"indices":35,"material":7},{"attributes":{"POSITION":41,"TANGENT":42,"NORMAL":43,"TEXCOORD_0":44},"indices":40,"material":8},{"attributes":{"POSITION":46,"TANGENT":47,"NORMAL":48,"TEXCOORD_0":49},"indices":45,"material":9}],"name":"shuichi"},{"primitives":[{"attributes":{"POSITION":51,"TANGENT":52,"NORMAL":53,"TEXCOORD_0":54},"indices":50,"material":10}],"name":"tiao"},{"primitives":[{"attributes":{"POSITION":56,"TANGENT":57,"NORMAL":58,"TEXCOORD_0":59},"indices":55,"material":11}],"name":"zzjihe8xf:jiejing7gc:zshuma1:wgg9ctest7zze:pCube1"},{"primitives":[{"attributes":{"POSITION":61,"TANGENT":62,"NORMAL":63,"TEXCOORD_0":64},"indices":60,"material":12}],"name":"zzjihe8xf:jiejing7gc:zshuma1:wgg9ctest7zze:wgg9ctest7z:wgg9ctest6:polySurface296"},{"primitives":[{"attributes":{"POSITION":66,"TANGENT":67,"NORMAL":68,"TEXCOORD_0":69},"indices":65,"material":13}],"name":"zzjihe8xf:jiejing7gc:zshuma1:wgg9ctest7zze:polySurface306"},{"primitives":[{"attributes":{"POSITION":71,"TANGENT":72,"NORMAL":73,"TEXCOORD_0":74},"indices":70,"material":14}],"name":"zzjihe8xf:jiejing7gc:zshuma1:wgg9ctest7zze:polySurface340"},{"primitives":[{"attributes":{"POSITION":76,"TANGENT":77,"NORMAL":78,"TEXCOORD_0":79},"indices":75,"material":15}],"name":"diban12"},{"primitives":[{"attributes":{"POSITION":81,"TANGENT":82,"NORMAL":83,"TEXCOORD_0":84},"indices":80,"material":16}],"name":"zzjihe8xf:zzjihe8xf:pCube2"}],"accessors":[{"bufferView":0,"componentType":5123,"count":375,"type":"SCALAR","name":"accessorIndices"},{"bufferView":1,"componentType":5126,"count":173,"max":[29.6547813,3.71256137,14.7466564],"min":[21.013588,0.4627694,9.080429],"type":"VEC3","name":"accessorPositions"},{"bufferView":2,"componentType":5126,"count":173,"type":"VEC4","name":"accessorTangents"},{"bufferView":1,"byteOffset":2076,"componentType":5126,"count":173,"type":"VEC3","name":"accessorNormals"},{"bufferView":3,"componentType":5126,"count":173,"type":"VEC2","name":"accessorUVs"},{"bufferView":0,"byteOffset":752,"componentType":5123,"count":504,"type":"SCALAR","name":"accessorIndices"},{"bufferView":1,"byteOffset":4152,"componentType":5126,"count":237,"max":[30.02796,3.71256137,16.4383125],"min":[20.4394321,0.2615199,9.080429],"type":"VEC3","name":"accessorPositions"},{"bufferView":2,"byteOffset":2768,"componentType":5126,"count":237,"type":"VEC4","name":"accessorTangents"},{"bufferView":1,"byteOffset":6996,"componentType":5126,"count":237,"type":"VEC3","name":"accessorNormals"},{"bufferView":3,"byteOffset":1384,"componentType":5126,"count":237,"type":"VEC2","name":"accessorUVs"},{"bufferView":0,"byteOffset":1760,"componentType":5123,"count":156,"type":"SCALAR","name":"accessorIndices"},{"bufferView":1,"byteOffset":9840,"componentType":5126,"count":74,"max":[28.8376312,0.993577838,10.7151661],"min":[21.0171432,0.9806418,9.080429],"type":"VEC3","name":"accessorPositions"},{"bufferView":2,"byteOffset":6560,"componentType":5126,"count":74,"type":"VEC4","name":"accessorTangents"},{"bufferView":1,"byteOffset":10728,"componentType":5126,"count":74,"type":"VEC3","name":"accessorNormals"},{"bufferView":3,"byteOffset":3280,"componentType":5126,"count":74,"type":"VEC2","name":"accessorUVs"},{"bufferView":0,"byteOffset":2072,"componentType":5123,"count":294,"type":"SCALAR","name":"accessorIndices"},{"bufferView":1,"byteOffset":11616,"componentType":5126,"count":168,"max":[29.6531429,4.043087,16.1237316],"min":[22.7519474,0.5336773,9.082782],"type":"VEC3","name":"accessorPositions"},{"bufferView":2,"byteOffset":7744,"componentType":5126,"count":168,"type":"VEC4","name":"accessorTangents"},{"bufferView":1,"byteOffset":13632,"componentType":5126,"count":168,"type":"VEC3","name":"accessorNormals"},{"bufferView":3,"byteOffset":3872,"componentType":5126,"count":168,"type":"VEC2","name":"accessorUVs"},{"bufferView":0,"byteOffset":2660,"componentType":5123,"count":237,"type":"SCALAR","name":"accessorIndices"},{"bufferView":1,"byteOffset":15648,"componentType":5126,"count":147,"max":[23.8491573,3.303689,16.20134],"min":[20.3089428,0.225777432,10.6327705],"type":"VEC3","name":"accessorPositions"},{"bufferView":2,"byteOffset":10432,"componentType":5126,"count":147,"type":"VEC4","name":"accessorTangents"},{"bufferView":1,"byteOffset":17412,"componentType":5126,"count":147,"type":"VEC3","name":"accessorNormals"},{"bufferView":3,"byteOffset":5216,"componentType":5126,"count":147,"type":"VEC2","name":"accessorUVs"},{"bufferView":0,"byteOffset":3136,"componentType":5123,"count":1020,"type":"SCALAR","name":"accessorIndices"},{"bufferView":1,"byteOffset":19176,"componentType":5126,"count":542,"max":[29.52962,3.806486,12.40078],"min":[23.7219238,0.2549172,9.041829],"type":"VEC3","name":"accessorPositions"},{"bufferView":2,"byteOffset":12784,"componentType":5126,"count":542,"type":"VEC4","name":"accessorTangents"},{"bufferView":1,"byteOffset":25680,"componentType":5126,"count":542,"type":"VEC3","name":"accessorNormals"},{"bufferView":3,"byteOffset":6392,"componentType":5126,"count":542,"type":"VEC2","name":"accessorUVs"},{"bufferView":0,"byteOffset":5176,"componentType":5123,"count":66,"type":"SCALAR","name":"accessorIndices"},{"bufferView":1,"byteOffset":32184,"componentType":5126,"count":24,"max":[25.73666,0.236041144,11.0730658],"min":[24.82558,0.236041144,9.689265],"type":"VEC3","name":"accessorPositions"},{"bufferView":2,"byteOffset":21456,"componentType":5126,"count":24,"type":"VEC4","name":"accessorTangents"},{"bufferView":1,"byteOffset":32472,"componentType":5126,"count":24,"type":"VEC3","name":"accessorNormals"},{"bufferView":3,"byteOffset":10728,"componentType":5126,"count":24,"type":"VEC2","name":"accessorUVs"},{"bufferView":0,"byteOffset":5308,"componentType":5123,"count":432,"type":"SCALAR","name":"accessorIndices"},{"bufferView":1,"byteOffset":32760,"componentType":5126,"count":240,"max":[25.7461376,0.245100036,11.0830269],"min":[24.8160973,0.225960821,9.679301],"type":"VEC3","name":"accessorPositions"},{"bufferView":2,"byteOffset":21840,"componentType":5126,"count":240,"type":"VEC4","name":"accessorTangents"},{"bufferView":1,"byteOffset":35640,"componentType":5126,"count":240,"type":"VEC3","name":"accessorNormals"},{"bufferView":3,"byteOffset":10920,"componentType":5126,"count":240,"type":"VEC2","name":"accessorUVs"},{"bufferView":0,"byteOffset":6172,"componentType":5123,"count":264,"type":"SCALAR","name":"accessorIndices"},{"bufferView":1,"byteOffset":38520,"componentType":5126,"count":144,"max":[25.6032658,0.351520747,10.9917231],"min":[24.9171715,0.219536111,10.307209],"type":"VEC3","name":"accessorPositions"},{"bufferView":2,"byteOffset":25680,"componentType":5126,"count":144,"type":"VEC4","name":"accessorTangents"},{"bufferView":1,"byteOffset":40248,"componentType":5126,"count":144,"type":"VEC3","name":"accessorNormals"},{"bufferView":3,"byteOffset":12840,"componentType":5126,"count":144,"type":"VEC2","name":"accessorUVs"},{"bufferView":0,"byteOffset":6700,"componentType":5123,"count":18,"type":"SCALAR","name":"accessorIndices"},{"bufferView":1,"byteOffset":41976,"componentType":5126,"count":12,"max":[25.5650826,0.33613044,10.9535427],"min":[24.95535,0.240739912,10.34539],"type":"VEC3","name":"accessorPositions"},{"bufferView":2,"byteOffset":27984,"componentType":5126,"count":12,"type":"VEC4","name":"accessorTangents"},{"bufferView":1,"byteOffset":42120,"componentType":5126,"count":12,"type":"VEC3","name":"accessorNormals"},{"bufferView":3,"byteOffset":13992,"componentType":5126,"count":12,"type":"VEC2","name":"accessorUVs"},{"bufferView":0,"byteOffset":6736,"componentType":5123,"count":7140,"type":"SCALAR","name":"accessorIndices"},{"bufferView":1,"byteOffset":42264,"componentType":5126,"count":4760,"max":[28.8713036,3.81330562,14.7434435],"min":[20.9617615,0.994882941,9.028357],"type":"VEC3","name":"accessorPositions"},{"bufferView":2,"byteOffset":28176,"componentType":5126,"count":4760,"type":"VEC4","name":"accessorTangents"},{"bufferView":1,"byteOffset":99384,"componentType":5126,"count":4760,"type":"VEC3","name":"accessorNormals"},{"bufferView":3,"byteOffset":14088,"componentType":5126,"count":4760,"type":"VEC2","name":"accessorUVs"},{"bufferView":0,"byteOffset":21016,"componentType":5123,"count":36,"type":"SCALAR","name":"accessorIndices"},{"bufferView":1,"byteOffset":156504,"componentType":5126,"count":24,"max":[0.005,0.005,0.005],"min":[-0.005,-0.005,-0.005],"type":"VEC3","name":"accessorPositions"},{"bufferView":2,"byteOffset":104336,"componentType":5126,"count":24,"type":"VEC4","name":"accessorTangents"},{"bufferView":1,"byteOffset":156792,"componentType":5126,"count":24,"type":"VEC3","name":"accessorNormals"},{"bufferView":3,"byteOffset":52168,"componentType":5126,"count":24,"type":"VEC2","name":"accessorUVs"},{"bufferView":0,"byteOffset":21088,"componentType":5123,"count":15405,"type":"SCALAR","name":"accessorIndices"},{"bufferView":1,"byteOffset":157080,"componentType":5126,"count":7643,"max":[0.536940455,0.3216343,0.0726662651],"min":[-0.908032537,0.0636761338,-0.8721684],"type":"VEC3","name":"accessorPositions"},{"bufferView":2,"byteOffset":104720,"componentType":5126,"count":7643,"type":"VEC4","name":"accessorTangents"},{"bufferView":1,"byteOffset":248796,"componentType":5126,"count":7643,"type":"VEC3","name":"accessorNormals"},{"bufferView":3,"byteOffset":52360,"componentType":5126,"count":7643,"type":"VEC2","name":"accessorUVs"},{"bufferView":0,"byteOffset":51900,"componentType":5123,"count":126,"type":"SCALAR","name":"accessorIndices"},{"bufferView":1,"byteOffset":340512,"componentType":5126,"count":54,"max":[-0.365834355,0.372864932,0.158002958],"min":[-0.8229119,0.00307478965,-0.8437951],"type":"VEC3","name":"accessorPositions"},{"bufferView":2,"byteOffset":227008,"componentType":5126,"count":54,"type":"VEC4","name":"accessorTangents"},{"bufferView":1,"byteOffset":341160,"componentType":5126,"count":54,"type":"VEC3","name":"accessorNormals"},{"bufferView":3,"byteOffset":113504,"componentType":5126,"count":54,"type":"VEC2","name":"accessorUVs"},{"bufferView":0,"byteOffset":52152,"componentType":5123,"count":930,"type":"SCALAR","name":"accessorIndices"},{"bufferView":1,"byteOffset":341808,"componentType":5126,"count":634,"max":[29.2986412,0.9963082,11.9469013],"min":[20.59038,0.246418789,9.476793],"type":"VEC3","name":"accessorPositions"},{"bufferView":2,"byteOffset":227872,"componentType":5126,"count":634,"type":"VEC4","name":"accessorTangents"},{"bufferView":1,"byteOffset":349416,"componentType":5126,"count":634,"type":"VEC3","name":"accessorNormals"},{"bufferView":3,"byteOffset":113936,"componentType":5126,"count":634,"type":"VEC2","name":"accessorUVs"},{"bufferView":0,"byteOffset":54012,"componentType":5123,"count":708,"type":"SCALAR","name":"accessorIndices"},{"bufferView":1,"byteOffset":357024,"componentType":5126,"count":285,"max":[29.29851,0.2529003,12.0279989],"min":[20.62282,0.223498076,9.153723],"type":"VEC3","name":"accessorPositions"},{"bufferView":2,"byteOffset":238016,"componentType":5126,"count":285,"type":"VEC4","name":"accessorTangents"},{"bufferView":1,"byteOffset":360444,"componentType":5126,"count":285,"type":"VEC3","name":"accessorNormals"},{"bufferView":3,"byteOffset":119008,"componentType":5126,"count":285,"type":"VEC2","name":"accessorUVs"},{"bufferView":0,"byteOffset":55428,"componentType":5123,"count":174,"type":"SCALAR","name":"accessorIndices"},{"bufferView":1,"byteOffset":363864,"componentType":5126,"count":122,"max":[30.83808,0.226779386,16.8815651],"min":[20.06717,0.121167764,8.058679],"type":"VEC3","name":"accessorPositions"},{"bufferView":2,"byteOffset":242576,"componentType":5126,"count":122,"type":"VEC4","name":"accessorTangents"},{"bufferView":1,"byteOffset":365328,"componentType":5126,"count":122,"type":"VEC3","name":"accessorNormals"},{"bufferView":3,"byteOffset":121288,"componentType":5126,"count":122,"type":"VEC2","name":"accessorUVs"}],"bufferViews":[{"buffer":0,"byteLength":55776,"name":"bufferViewScalar"},{"buffer":0,"byteOffset":55776,"byteLength":366792,"byteStride":12,"name":"bufferViewFloatVec3"},{"buffer":0,"byteOffset":422568,"byteLength":244528,"byteStride":16,"name":"bufferViewFloatVec4"},{"buffer":0,"byteOffset":667096,"byteLength":122264,"byteStride":8,"name":"bufferViewFloatVec2"}],"buffers":[{"uri":"shunadasha2.bin","byteLength":789360}],"materials":[{"pbrMetallicRoughness":{"baseColorTexture":{"index":0},"metallicFactor":0.0,"roughnessFactor":0.3207082},"alphaMode":"BLEND","name":"boli11"},{"pbrMetallicRoughness":{"baseColorTexture":{"index":1},"metallicFactor":0.0,"roughnessFactor":0.3207082},"name":"ding"},{"pbrMetallicRoughness":{"baseColorFactor":[0.5,0.5,0.5,1.0],"metallicFactor":0.0,"roughnessFactor":0.3207082},"name":"zzjihe8xf:blinn14"},{"pbrMetallicRoughness":{"baseColorTexture":{"index":2},"metallicFactor":0.0,"roughnessFactor":0.3207082},"name":"blinn14"},{"pbrMetallicRoughness":{"baseColorTexture":{"index":3},"metallicFactor":0.0,"roughnessFactor":0.3207082},"name":"ding2"},{"pbrMetallicRoughness":{"baseColorTexture":{"index":4},"metallicFactor":0.0,"roughnessFactor":0.3207082},"name":"logo"},{"pbrMetallicRoughness":{"baseColorTexture":{"index":5},"metallicFactor":0.0,"roughnessFactor":0.3207082},"name":"blinn4"},{"pbrMetallicRoughness":{"baseColorTexture":{"index":6},"metallicFactor":0.0,"roughnessFactor":0.3207082},"name":"blinn5"},{"pbrMetallicRoughness":{"baseColorTexture":{"index":7},"metallicFactor":0.0,"roughnessFactor":0.3207082},"name":"zzjihe8xf:jiejing7gc:blinn3"},{"pbrMetallicRoughness":{"baseColorTexture":{"index":8},"metallicFactor":0.0,"roughnessFactor":0.3207082},"name":"zzjihe8xf:jiejing7gc:blinn4"},{"pbrMetallicRoughness":{"baseColorTexture":{"index":9},"metallicFactor":0.0,"roughnessFactor":0.3207082},"name":"blinn3a"},{"pbrMetallicRoughness":{"baseColorFactor":[0.4,0.4,0.4,1.0],"metallicFactor":0.0,"roughnessFactor":0.5},"name":"standardSurface2"},{"pbrMetallicRoughness":{"baseColorTexture":{"index":10},"metallicFactor":0.0,"roughnessFactor":0.3207082},"name":"chuangqiang"},{"pbrMetallicRoughness":{"baseColorTexture":{"index":11},"metallicFactor":0.0,"roughnessFactor":0.3207082},"alphaMode":"BLEND","name":"zzjihe8xf:blinn12"},{"pbrMetallicRoughness":{"baseColorTexture":{"index":12},"metallicFactor":0.0,"roughnessFactor":0.3207082},"name":"dianmian"},{"pbrMetallicRoughness":{"baseColorTexture":{"index":13},"metallicFactor":0.0,"roughnessFactor":0.3207082},"name":"diban1"},{"pbrMetallicRoughness":{"baseColorTexture":{"index":13},"metallicFactor":0.0,"roughnessFactor":0.3207082},"name":"zzjihe8xf:blinn9"}],"textures":[{"sampler":0,"source":0,"name":"boli2a_alpha_boli2a.png"},{"sampler":0,"source":1,"name":"ding.jpg"},{"sampler":0,"source":2,"name":"bin14.jpg"},{"sampler":0,"source":3,"name":"ding2.jpg"},{"sampler":0,"source":4,"name":"shumadasha.jpg"},{"sampler":0,"source":5,"name":"shitou1.jpg"},{"sampler":0,"source":6,"name":"shibian2a.jpg"},{"sampler":0,"source":7,"name":"shitai1a.jpg"},{"sampler":0,"source":8,"name":"shui1.jpg"},{"sampler":0,"source":9,"name":"shutiao5a.jpg"},{"sampler":0,"source":10,"name":"chuanhu1.jpg"},{"sampler":0,"source":11,"name":"boli2_alpha_boli2.png"},{"sampler":0,"source":12,"name":"dianpu1a2048g.jpg"},{"sampler":0,"source":13,"name":"diban1a.jpg"}],"images":[{"uri":"boli2a_alpha_boli2a.png"},{"uri":"ding.jpg"},{"uri":"bin14.jpg"},{"uri":"ding2.jpg"},{"uri":"shumadasha.jpg"},{"uri":"shitou1.jpg"},{"uri":"shibian2a.jpg"},{"uri":"shitai1a.jpg"},{"uri":"shui1.jpg"},{"uri":"shutiao5a.jpg"},{"uri":"chuanhu1.jpg"},{"uri":"boli2_alpha_boli2.png"},{"uri":"dianpu1a2048g.jpg"},{"uri":"diban1a.jpg"}],"samplers":[{"magFilter":9729,"minFilter":9987}]}