{"asset":{"version":"2.0","generator":"babylon.js glTF exporter for Autodesk MAYA 2022 v20221031.2"},"scene":0,"scenes":[{"nodes":[0,1]}],"nodes":[{"mesh":0,"name":"polySurface6"},{"mesh":1,"name":"polySurface7"}],"meshes":[{"primitives":[{"attributes":{"POSITION":1,"TANGENT":2,"NORMAL":3,"TEXCOORD_0":4},"indices":0,"material":0}],"name":"polySurface6"},{"primitives":[{"attributes":{"POSITION":6,"TANGENT":7,"NORMAL":8,"TEXCOORD_0":9},"indices":5,"material":1}],"name":"polySurface7"}],"accessors":[{"bufferView":0,"componentType":5123,"count":456,"type":"SCALAR","name":"accessorIndices"},{"bufferView":1,"componentType":5126,"count":296,"max":[2.21468735,1.067331,9.404039],"min":[-13.4071789,0.1461669,9.196073],"type":"VEC3","name":"accessorPositions"},{"bufferView":2,"componentType":5126,"count":296,"type":"VEC4","name":"accessorTangents"},{"bufferView":1,"byteOffset":3552,"componentType":5126,"count":296,"type":"VEC3","name":"accessorNormals"},{"bufferView":3,"componentType":5126,"count":296,"type":"VEC2","name":"accessorUVs"},{"bufferView":0,"byteOffset":912,"componentType":5123,"count":456,"type":"SCALAR","name":"accessorIndices"},{"bufferView":1,"byteOffset":7104,"componentType":5126,"count":294,"max":[2.44910526,1.11269081,12.4068651],"min":[-13.6148777,0.108504996,8.757818],"type":"VEC3","name":"accessorPositions"},{"bufferView":2,"byteOffset":4736,"componentType":5126,"count":294,"type":"VEC4","name":"accessorTangents"},{"bufferView":1,"byteOffset":10632,"componentType":5126,"count":294,"type":"VEC3","name":"accessorNormals"},{"bufferView":3,"byteOffset":2368,"componentType":5126,"count":294,"type":"VEC2","name":"accessorUVs"}],"bufferViews":[{"buffer":0,"byteLength":1824,"name":"bufferViewScalar"},{"buffer":0,"byteOffset":1824,"byteLength":14160,"byteStride":12,"name":"bufferViewFloatVec3"},{"buffer":0,"byteOffset":15984,"byteLength":9440,"byteStride":16,"name":"bufferViewFloatVec4"},{"buffer":0,"byteOffset":25424,"byteLength":4720,"byteStride":8,"name":"bufferViewFloatVec2"}],"buffers":[{"uri":"huayuangchengduimian2.bin","byteLength":30144}],"materials":[{"pbrMetallicRoughness":{"baseColorTexture":{"index":0},"metallicFactor":0.0,"roughnessFactor":0.3207082},"name":"zzjihe8xf:blinn5"},{"pbrMetallicRoughness":{"baseColorTexture":{"index":1},"metallicFactor":0.0,"roughnessFactor":0.201679826},"name":"blinn17"}],"textures":[{"sampler":0,"source":0,"name":"tuofa.jpg"},{"sampler":0,"source":1,"name":"xiliandiban1.jpg"}],"images":[{"uri":"tuofa.jpg"},{"uri":"xiliandiban1.jpg"}],"samplers":[{"magFilter":9729,"minFilter":9987}]}