{"asset":{"version":"2.0","generator":"babylon.js glTF exporter for Autodesk MAYA 2022 v20221031.2"},"scene":0,"scenes":[{"nodes":[0]}],"nodes":[{"children":[1],"translation":[-11.1435289,0.125069574,-11.5262737],"rotation":[0.0,0.8184983,0.0,0.5745089],"scale":[77.74332,77.74332,77.74332],"name":"hyc"},{"children":[2,3,4,5,6,7,8,9,10,11,12,13,14,15,16,17],"translation":[-0.188151971,-0.00160874613,0.08441375],"rotation":[0.0,0.8184983,0.0,-0.5745089],"scale":[0.0128628416,0.0128628416,0.0128628416],"name":"huayuancheng"},{"mesh":0,"name":"zzjihe:guangao","extras":{"currentUVSet":"map1"}},{"mesh":1,"name":"zzjihe:fangzhuan1","extras":{"currentUVSet":"map1"}},{"mesh":2,"name":"zzjihe:tanei","extras":{"currentUVSet":"map1"}},{"mesh":3,"name":"zzjihe:naixue","extras":{"currentUVSet":"map1"}},{"mesh":4,"name":"zzjihe:tawai","extras":{"currentUVSet":"map1"}},{"mesh":5,"name":"zzjihe:louti","extras":{"currentUVSet":"map1"}},{"mesh":6,"name":"zzjihe:boli","extras":{"currentUVSet":"map1"}},{"mesh":7,"name":"zzjihe:youzhanbeihou","extras":{"currentUVSet":"map1"}},{"mesh":8,"name":"zzjihe:zheyang1","extras":{"currentUVSet":"map1"}},{"mesh":9,"name":"logo1","extras":{"currentUVSet":"map1"}},{"mesh":10,"translation":[0.0,0.0,2.2737367E-15],"name":"zzjihe8xf:zzjihe8xf:zzjihe8xf:polySurface240","extras":{"currentUVSet":"map1"}},{"mesh":11,"translation":[-1.93408226E-07,-3.15331476E-07,-1.12192322E-06],"name":"zzjihe:polySurface733","extras":{"currentUVSet":"map1"}},{"mesh":12,"translation":[-1.93408226E-07,-3.15331476E-07,-1.12192322E-06],"name":"zoulangtianjia","extras":{"currentUVSet":"map1"}},{"mesh":13,"translation":[0.9547504,0.0526160076,2.58500767],"rotation":[0.0,0.019173814,0.0,0.9998162],"name":"zhiwu","extras":{"currentUVSet":"map1"}},{"mesh":14,"translation":[-1.93408226E-07,-3.15331476E-07,-1.12192322E-06],"name":"zzjihe:jiayouzan","extras":{"currentUVSet":"map1"}},{"mesh":15,"translation":[-1.93408226E-07,-3.15331476E-07,-1.12192322E-06],"name":"zzjihe:polySurface579"}],"meshes":[{"primitives":[{"attributes":{"POSITION":1,"TANGENT":2,"NORMAL":3,"TEXCOORD_0":4},"indices":0,"material":0}],"name":"zzjihe:guangao"},{"primitives":[{"attributes":{"POSITION":6,"TANGENT":7,"NORMAL":8,"TEXCOORD_0":9},"indices":5,"material":1}],"name":"zzjihe:fangzhuan1"},{"primitives":[{"attributes":{"POSITION":11,"TANGENT":12,"NORMAL":13,"TEXCOORD_0":14},"indices":10,"material":2}],"name":"zzjihe:tanei"},{"primitives":[{"attributes":{"POSITION":16,"TANGENT":17,"NORMAL":18,"TEXCOORD_0":19},"indices":15,"material":3}],"name":"zzjihe:naixue"},{"primitives":[{"attributes":{"POSITION":21,"TANGENT":22,"NORMAL":23,"TEXCOORD_0":24},"indices":20,"material":4}],"name":"zzjihe:tawai"},{"primitives":[{"attributes":{"POSITION":26,"TANGENT":27,"NORMAL":28,"TEXCOORD_0":29},"indices":25,"material":5}],"name":"zzjihe:louti"},{"primitives":[{"attributes":{"POSITION":31,"TANGENT":32,"NORMAL":33,"TEXCOORD_0":34},"indices":30,"material":6}],"name":"zzjihe:boli"},{"primitives":[{"attributes":{"POSITION":36,"TANGENT":37,"NORMAL":38,"TEXCOORD_0":39},"indices":35,"material":7}],"name":"zzjihe:youzhanbeihou"},{"primitives":[{"attributes":{"POSITION":41,"TANGENT":42,"NORMAL":43,"TEXCOORD_0":44},"indices":40,"material":8}],"name":"zzjihe:zheyang1"},{"primitives":[{"attributes":{"POSITION":46,"TANGENT":47,"NORMAL":48,"TEXCOORD_0":49},"indices":45,"material":9}],"name":"logo1"},{"primitives":[{"attributes":{"POSITION":51,"TANGENT":52,"NORMAL":53,"TEXCOORD_0":54},"indices":50,"material":10}],"name":"zzjihe8xf:zzjihe8xf:zzjihe8xf:polySurface240"},{"primitives":[{"attributes":{"POSITION":56,"TANGENT":57,"NORMAL":58,"TEXCOORD_0":59},"indices":55,"material":11}],"name":"zzjihe:polySurface733"},{"primitives":[{"attributes":{"POSITION":61,"TANGENT":62,"NORMAL":63,"TEXCOORD_0":64},"indices":60,"material":12}],"name":"zoulangtianjia"},{"primitives":[{"attributes":{"POSITION":66,"TANGENT":67,"NORMAL":68,"TEXCOORD_0":69},"indices":65,"material":13}],"name":"zhiwu"},{"primitives":[{"attributes":{"POSITION":71,"TANGENT":72,"NORMAL":73,"TEXCOORD_0":74},"indices":70,"material":14}],"name":"zzjihe:jiayouzan"},{"primitives":[{"attributes":{"POSITION":76,"TANGENT":77,"NORMAL":78,"TEXCOORD_0":79},"indices":75,"material":15}],"name":"zzjihe:polySurface579"}],"accessors":[{"bufferView":0,"componentType":5123,"count":2586,"type":"SCALAR","name":"accessorIndices"},{"bufferView":1,"componentType":5126,"count":1506,"max":[10.7622261,2.32954121,2.10806155],"min":[-7.093423,0.131896049,-2.64579654],"type":"VEC3","name":"accessorPositions"},{"bufferView":2,"componentType":5126,"count":1506,"type":"VEC4","name":"accessorTangents"},{"bufferView":1,"byteOffset":18072,"componentType":5126,"count":1506,"type":"VEC3","name":"accessorNormals"},{"bufferView":3,"componentType":5126,"count":1506,"type":"VEC2","name":"accessorUVs"},{"bufferView":0,"byteOffset":5172,"componentType":5123,"count":873,"type":"SCALAR","name":"accessorIndices"},{"bufferView":1,"byteOffset":36144,"componentType":5126,"count":382,"max":[10.84001,2.36161,2.043867],"min":[-2.61801744,0.1855535,-2.64579654],"type":"VEC3","name":"accessorPositions"},{"bufferView":2,"byteOffset":24096,"componentType":5126,"count":382,"type":"VEC4","name":"accessorTangents"},{"bufferView":1,"byteOffset":40728,"componentType":5126,"count":382,"type":"VEC3","name":"accessorNormals"},{"bufferView":3,"byteOffset":12048,"componentType":5126,"count":382,"type":"VEC2","name":"accessorUVs"},{"bufferView":0,"byteOffset":6920,"componentType":5123,"count":28983,"type":"SCALAR","name":"accessorIndices"},{"bufferView":1,"byteOffset":45312,"componentType":5126,"count":14390,"max":[2.00134754,2.177477,1.35394037],"min":[-9.871782,0.136020884,-2.50244856],"type":"VEC3","name":"accessorPositions"},{"bufferView":2,"byteOffset":30208,"componentType":5126,"count":14390,"type":"VEC4","name":"accessorTangents"},{"bufferView":1,"byteOffset":217992,"componentType":5126,"count":14390,"type":"VEC3","name":"accessorNormals"},{"bufferView":3,"byteOffset":15104,"componentType":5126,"count":14390,"type":"VEC2","name":"accessorUVs"},{"bufferView":0,"byteOffset":64888,"componentType":5123,"count":1221,"type":"SCALAR","name":"accessorIndices"},{"bufferView":1,"byteOffset":390672,"componentType":5126,"count":638,"max":[0.89729,1.68439817,1.61896849],"min":[-9.903003,0.109948196,-2.54697514],"type":"VEC3","name":"accessorPositions"},{"bufferView":2,"byteOffset":260448,"componentType":5126,"count":638,"type":"VEC4","name":"accessorTangents"},{"bufferView":1,"byteOffset":398328,"componentType":5126,"count":638,"type":"VEC3","name":"accessorNormals"},{"bufferView":3,"byteOffset":130224,"componentType":5126,"count":638,"type":"VEC2","name":"accessorUVs"},{"bufferView":0,"byteOffset":67332,"componentType":5123,"count":6126,"type":"SCALAR","name":"accessorIndices"},{"bufferView":1,"byteOffset":405984,"componentType":5126,"count":1752,"max":[1.99611807,2.16544986,1.34590936],"min":[-9.829824,0.0249503329,-2.497595],"type":"VEC3","name":"accessorPositions"},{"bufferView":2,"byteOffset":270656,"componentType":5126,"count":1752,"type":"VEC4","name":"accessorTangents"},{"bufferView":1,"byteOffset":427008,"componentType":5126,"count":1752,"type":"VEC3","name":"accessorNormals"},{"bufferView":3,"byteOffset":135328,"componentType":5126,"count":1752,"type":"VEC2","name":"accessorUVs"},{"bufferView":0,"byteOffset":79584,"componentType":5123,"count":10746,"type":"SCALAR","name":"accessorIndices"},{"bufferView":1,"byteOffset":448032,"componentType":5126,"count":5561,"max":[0.8837158,1.41823709,-2.371798],"min":[-9.490483,0.0842729956,-2.74745727],"type":"VEC3","name":"accessorPositions"},{"bufferView":2,"byteOffset":298688,"componentType":5126,"count":5561,"type":"VEC4","name":"accessorTangents"},{"bufferView":1,"byteOffset":514764,"componentType":5126,"count":5561,"type":"VEC3","name":"accessorNormals"},{"bufferView":3,"byteOffset":149344,"componentType":5126,"count":5561,"type":"VEC2","name":"accessorUVs"},{"bufferView":0,"byteOffset":101076,"componentType":5123,"count":708,"type":"SCALAR","name":"accessorIndices"},{"bufferView":1,"byteOffset":581496,"componentType":5126,"count":412,"max":[10.6098728,2.50443053,2.2287035],"min":[1.928667,0.5101789,-2.53282332],"type":"VEC3","name":"accessorPositions"},{"bufferView":2,"byteOffset":387664,"componentType":5126,"count":412,"type":"VEC4","name":"accessorTangents"},{"bufferView":1,"byteOffset":586440,"componentType":5126,"count":412,"type":"VEC3","name":"accessorNormals"},{"bufferView":3,"byteOffset":193832,"componentType":5126,"count":412,"type":"VEC2","name":"accessorUVs"},{"bufferView":0,"byteOffset":102492,"componentType":5123,"count":1821,"type":"SCALAR","name":"accessorIndices"},{"bufferView":1,"byteOffset":591384,"componentType":5126,"count":1203,"max":[3.71539044,2.193718,1.61896729],"min":[-3.848618,0.4544609,-2.4805944],"type":"VEC3","name":"accessorPositions"},{"bufferView":2,"byteOffset":394256,"componentType":5126,"count":1203,"type":"VEC4","name":"accessorTangents"},{"bufferView":1,"byteOffset":605820,"componentType":5126,"count":1203,"type":"VEC3","name":"accessorNormals"},{"bufferView":3,"byteOffset":197128,"componentType":5126,"count":1203,"type":"VEC2","name":"accessorUVs"},{"bufferView":0,"byteOffset":106136,"componentType":5123,"count":10425,"type":"SCALAR","name":"accessorIndices"},{"bufferView":1,"byteOffset":620256,"componentType":5126,"count":6168,"max":[10.87228,2.50678349,2.746112],"min":[-10.0709467,-0.07857544,-2.67568779],"type":"VEC3","name":"accessorPositions"},{"bufferView":2,"byteOffset":413504,"componentType":5126,"count":6168,"type":"VEC4","name":"accessorTangents"},{"bufferView":1,"byteOffset":694272,"componentType":5126,"count":6168,"type":"VEC3","name":"accessorNormals"},{"bufferView":3,"byteOffset":206752,"componentType":5126,"count":6168,"type":"VEC2","name":"accessorUVs"},{"bufferView":0,"byteOffset":126988,"componentType":5123,"count":16077,"type":"SCALAR","name":"accessorIndices"},{"bufferView":1,"byteOffset":768288,"componentType":5126,"count":7782,"max":[7.7198925,1.99989128,2.067052],"min":[-9.933539,0.388313055,-2.637821],"type":"VEC3","name":"accessorPositions"},{"bufferView":2,"byteOffset":512192,"componentType":5126,"count":7782,"type":"VEC4","name":"accessorTangents"},{"bufferView":1,"byteOffset":861672,"componentType":5126,"count":7782,"type":"VEC3","name":"accessorNormals"},{"bufferView":3,"byteOffset":256096,"componentType":5126,"count":7782,"type":"VEC2","name":"accessorUVs"},{"bufferView":0,"byteOffset":159144,"componentType":5123,"count":204,"type":"SCALAR","name":"accessorIndices"},{"bufferView":1,"byteOffset":955056,"componentType":5126,"count":115,"max":[11.4017382,0.216290817,3.83056521],"min":[-11.4015808,0.119631425,3.51319766],"type":"VEC3","name":"accessorPositions"},{"bufferView":2,"byteOffset":636704,"componentType":5126,"count":115,"type":"VEC4","name":"accessorTangents"},{"bufferView":1,"byteOffset":956436,"componentType":5126,"count":115,"type":"VEC3","name":"accessorNormals"},{"bufferView":3,"byteOffset":318352,"componentType":5126,"count":115,"type":"VEC2","name":"accessorUVs"},{"bufferView":0,"byteOffset":159552,"componentType":5123,"count":2598,"type":"SCALAR","name":"accessorIndices"},{"bufferView":1,"byteOffset":957816,"componentType":5126,"count":1038,"max":[11.4018745,0.390996,3.51776361],"min":[-11.4018745,-0.08045265,-3.517764],"type":"VEC3","name":"accessorPositions"},{"bufferView":2,"byteOffset":638544,"componentType":5126,"count":1038,"type":"VEC4","name":"accessorTangents"},{"bufferView":1,"byteOffset":970272,"componentType":5126,"count":1038,"type":"VEC3","name":"accessorNormals"},{"bufferView":3,"byteOffset":319272,"componentType":5126,"count":1038,"type":"VEC2","name":"accessorUVs"},{"bufferView":0,"byteOffset":164748,"componentType":5123,"count":1584,"type":"SCALAR","name":"accessorIndices"},{"bufferView":1,"byteOffset":982728,"componentType":5126,"count":768,"max":[3.66482019,0.456281155,1.0834775],"min":[2.436672,0.0277305469,-1.32945037],"type":"VEC3","name":"accessorPositions"},{"bufferView":2,"byteOffset":655152,"componentType":5126,"count":768,"type":"VEC4","name":"accessorTangents"},{"bufferView":1,"byteOffset":991944,"componentType":5126,"count":768,"type":"VEC3","name":"accessorNormals"},{"bufferView":3,"byteOffset":327576,"componentType":5126,"count":768,"type":"VEC2","name":"accessorUVs"},{"bufferView":0,"byteOffset":167916,"componentType":5123,"count":384,"type":"SCALAR","name":"accessorIndices"},{"bufferView":1,"byteOffset":1001160,"componentType":5126,"count":100,"max":[2.19434571,0.3892167,-3.224238],"min":[1.79379666,0.0762622,-3.62752533],"type":"VEC3","name":"accessorPositions"},{"bufferView":2,"byteOffset":667440,"componentType":5126,"count":100,"type":"VEC4","name":"accessorTangents"},{"bufferView":1,"byteOffset":1002360,"componentType":5126,"count":100,"type":"VEC3","name":"accessorNormals"},{"bufferView":3,"byteOffset":333720,"componentType":5126,"count":100,"type":"VEC2","name":"accessorUVs"},{"bufferView":0,"byteOffset":168684,"componentType":5123,"count":15144,"type":"SCALAR","name":"accessorIndices"},{"bufferView":1,"byteOffset":1003560,"componentType":5126,"count":6586,"max":[10.5791121,0.866393,3.793621],"min":[-9.915095,0.132849619,0.243889064],"type":"VEC3","name":"accessorPositions"},{"bufferView":2,"byteOffset":669040,"componentType":5126,"count":6586,"type":"VEC4","name":"accessorTangents"},{"bufferView":1,"byteOffset":1082592,"componentType":5126,"count":6586,"type":"VEC3","name":"accessorNormals"},{"bufferView":3,"byteOffset":334520,"componentType":5126,"count":6586,"type":"VEC2","name":"accessorUVs"},{"bufferView":0,"byteOffset":198972,"componentType":5123,"count":2415,"type":"SCALAR","name":"accessorIndices"},{"bufferView":1,"byteOffset":1161624,"componentType":5126,"count":1184,"max":[3.72085476,2.05045629,1.61896956],"min":[-9.903003,0.02964837,-2.556277],"type":"VEC3","name":"accessorPositions"},{"bufferView":2,"byteOffset":774416,"componentType":5126,"count":1184,"type":"VEC4","name":"accessorTangents"},{"bufferView":1,"byteOffset":1175832,"componentType":5126,"count":1184,"type":"VEC3","name":"accessorNormals"},{"bufferView":3,"byteOffset":387208,"componentType":5126,"count":1184,"type":"VEC2","name":"accessorUVs"}],"bufferViews":[{"buffer":0,"byteLength":203804,"name":"bufferViewScalar"},{"buffer":0,"byteOffset":203804,"byteLength":1190040,"byteStride":12,"name":"bufferViewFloatVec3"},{"buffer":0,"byteOffset":1393844,"byteLength":793360,"byteStride":16,"name":"bufferViewFloatVec4"},{"buffer":0,"byteOffset":2187204,"byteLength":396680,"byteStride":8,"name":"bufferViewFloatVec2"}],"buffers":[{"uri":"huayuancheng2.bin","byteLength":2583884}],"materials":[{"pbrMetallicRoughness":{"baseColorTexture":{"index":0},"metallicFactor":0.0,"roughnessFactor":0.3207082},"name":"guanago"},{"pbrMetallicRoughness":{"baseColorTexture":{"index":1},"metallicFactor":0.0,"roughnessFactor":0.3207082},"name":"fangzhuan"},{"pbrMetallicRoughness":{"baseColorTexture":{"index":2},"metallicFactor":0.0,"roughnessFactor":0.3207082},"name":"tajinshu"},{"pbrMetallicRoughness":{"baseColorTexture":{"index":3},"metallicFactor":0.0,"roughnessFactor":0.3207082},"name":"naixue1"},{"pbrMetallicRoughness":{"baseColorTexture":{"index":4},"metallicFactor":0.0,"roughnessFactor":0.3207082},"alphaMode":"BLEND","name":"taboli"},{"pbrMetallicRoughness":{"baseColorTexture":{"index":5},"metallicFactor":0.0,"roughnessFactor":0.3207082},"name":"louti51"},{"pbrMetallicRoughness":{"baseColorTexture":{"index":6},"metallicFactor":0.0,"roughnessFactor":0.3207082},"alphaMode":"BLEND","name":"blinn1"},{"pbrMetallicRoughness":{"baseColorTexture":{"index":7},"metallicFactor":0.0,"roughnessFactor":0.3207082},"name":"youzhanbeijing"},{"pbrMetallicRoughness":{"baseColorTexture":{"index":8},"metallicFactor":0.0,"roughnessFactor":0.3207082},"name":"zheyang"},{"pbrMetallicRoughness":{"baseColorTexture":{"index":9},"metallicFactor":0.0,"roughnessFactor":0.3207082},"name":"keyu1"},{"pbrMetallicRoughness":{"baseColorTexture":{"index":10},"metallicFactor":0.0,"roughnessFactor":0.3207082},"name":"menkoulouti"},{"pbrMetallicRoughness":{"baseColorTexture":{"index":11},"metallicFactor":0.0,"roughnessFactor":0.3207082},"name":"dididi:diban"},{"pbrMetallicRoughness":{"baseColorTexture":{"index":12},"metallicFactor":0.0,"roughnessFactor":0.3207082},"name":"zzoulang1:blinn6"},{"pbrMetallicRoughness":{"baseColorTexture":{"index":13},"metallicFactor":0.0,"roughnessFactor":0.3207082},"alphaMode":"BLEND","name":"blinn7"},{"pbrMetallicRoughness":{"baseColorTexture":{"index":14},"metallicFactor":0.0,"roughnessFactor":0.3207082},"name":"jiaouzan"},{"pbrMetallicRoughness":{"baseColorTexture":{"index":15},"metallicFactor":0.0,"roughnessFactor":0.3207082},"name":"louding"}],"textures":[{"sampler":0,"source":0,"name":"guanago_2D_View2.jpg"},{"sampler":0,"source":1,"name":"fangzhuan_2D_View1.jpg"},{"sampler":0,"source":2,"name":"tajinshu_2D_View2.jpg"},{"sampler":0,"source":3,"name":"naixue1_2D_View1a.jpg"},{"sampler":0,"source":4,"name":"taboli_2D_View2_alpha_taboli_2D_View2.png"},{"sampler":0,"source":5,"name":"louti51_2D_View1.jpg"},{"sampler":0,"source":6,"name":"blinn1_2D_View2_alpha_blinn1_2D_View2.png"},{"sampler":0,"source":7,"name":"youzhanbeijing_2D_View1.jpg"},{"sampler":0,"source":8,"name":"zheyang_2D_View2.jpg"},{"sampler":0,"source":9,"name":"keyu1_2D_View1.jpg"},{"sampler":0,"source":10,"name":"menkoulouti_2D_View2.jpg"},{"sampler":0,"source":11,"name":"dididi_diban_2D_View1.jpg"},{"sampler":0,"source":12,"name":"zzoulang1_blinn6_2D_View2.jpg"},{"sampler":0,"source":13,"name":"blinn7_2D_View2_alpha_aaabai1a.png"},{"sampler":0,"source":14,"name":"jiaouzan_2D_View1.jpg"},{"sampler":0,"source":15,"name":"louding_2D_View1a.jpg"}],"images":[{"uri":"guanago_2D_View2.jpg"},{"uri":"fangzhuan_2D_View1.jpg"},{"uri":"tajinshu_2D_View2.jpg"},{"uri":"naixue1_2D_View1a.jpg"},{"uri":"taboli_2D_View2_alpha_taboli_2D_View2.png"},{"uri":"louti51_2D_View1.jpg"},{"uri":"blinn1_2D_View2_alpha_blinn1_2D_View2.png"},{"uri":"youzhanbeijing_2D_View1.jpg"},{"uri":"zheyang_2D_View2.jpg"},{"uri":"keyu1_2D_View1.jpg"},{"uri":"menkoulouti_2D_View2.jpg"},{"uri":"dididi_diban_2D_View1.jpg"},{"uri":"zzoulang1_blinn6_2D_View2.jpg"},{"uri":"blinn7_2D_View2_alpha_aaabai1a.png"},{"uri":"jiaouzan_2D_View1.jpg"},{"uri":"louding_2D_View1a.jpg"}],"samplers":[{"magFilter":9729,"minFilter":9987}]}